# xmcd CD database file
#
# Track frame offsets:
#	150
#	10527
#	24819
#	42062
#	55623
#	66828
#	79677
#	98509
#	120464
#	138225
#	176755
#	195518
#	217189
#	231952
#
# Disc length: 3270 seconds
#
# Revision: 0
# Processed by: cddbd v1.5.2PL0 Copyright (c) Steve Scherf et al.
# Submitted via: CDex 1.70beta2
#
DISCID=a80cc40e
DTITLE=Eric Burdon - Eric Burdon of The Animals Vol. 2
DYEAR=2007
DGENRE=Blues
TTITLE0=Don't Let Me Be Misunderstood
TTITLE1=Boom Boom
TTITLE2=San Franciscan Nights
TTITLE3=When I Was Young
TTITLE4=Gonna Send You Back To Walker
TTITLE5=I'm Crying
TTITLE6=Montery
TTITLE7=Spill The Wine
TTITLE8=Inside Looking Out
TTITLE9=No More Elmore
TTITLE10=Wall Of Silence
TTITLE11=Take It Easy
TTITLE12=Be My Baby
TTITLE13=Get The Funky Feeling
EXTD=YEAR: 2007
EXTT0=
EXTT1=
EXTT2=
EXTT3=
EXTT4=
EXTT5=
EXTT6=
EXTT7=
EXTT8=
EXTT9=
EXTT10=
EXTT11=
EXTT12=
EXTT13=
PLAYORDER=
